<?xml version="1.0" standalone="no"?>
<!DOCTYPE svg PUBLIC "-//W3C//DTD SVG 20010904//EN"
 "http://www.w3.org/TR/2001/REC-SVG-20010904/DTD/svg10.dtd">
<svg version="1.0" xmlns="http://www.w3.org/2000/svg"
 width="283.000000pt" height="419.000000pt" viewBox="0 0 283.000000 419.000000"
 preserveAspectRatio="xMidYMid meet">

<g transform="translate(0.000000,419.000000) scale(0.100000,-0.100000)"
fill="#000000" stroke="none">
<path d="M1372 4075 c-104 -33 -278 -121 -404 -203 l-106 -70 -48 24 c-60 30
-92 30 -154 -1 -59 -30 -280 -221 -321 -277 -35 -49 -37 -90 -8 -159 l21 -49
-74 -92 c-144 -180 -248 -357 -248 -423 0 -37 29 -79 89 -129 50 -42 86 -46
188 -19 l65 18 29 -35 c16 -19 29 -37 29 -41 0 -3 -21 -14 -47 -24 -27 -9 -66
-29 -87 -42 l-39 -25 6 -102 c8 -142 103 -1113 153 -1556 29 -267 41 -317 87
-357 50 -44 356 -164 621 -243 373 -111 621 -141 810 -96 206 48 464 152 663
269 127 74 137 101 153 382 30 568 64 1693 52 1726 -6 13 -20 33 -32 44 -12
11 -34 47 -50 80 -44 97 -59 110 -125 111 -74 1 -95 20 -76 67 46 110 62 227
37 275 -17 32 -97 82 -193 122 -82 33 -82 33 -23 184 23 58 40 114 38 123 -7
37 -243 112 -419 134 -107 13 -114 9 -122 -63 -4 -28 -11 -56 -16 -61 -6 -6
-32 -5 -73 3 -35 7 -118 18 -185 24 l-122 11 68 110 c125 204 128 228 34 319
-38 36 -75 66 -83 65 -8 0 -48 -11 -88 -24z m142 -54 c16 -17 28 -32 25 -34
-2 -2 -24 -11 -49 -21 -83 -32 -314 -166 -437 -254 -181 -129 -301 -231 -458
-387 -198 -198 -344 -385 -425 -545 l-32 -64 -40 43 c-36 38 -40 47 -35 78 15
93 172 323 367 539 265 294 659 571 949 668 82 27 89 26 135 -23z m16 -133
c-35 -93 -124 -227 -239 -358 -68 -78 -56 -36 14 47 83 98 141 186 194 292 47
93 62 102 31 19z m-722 -92 c15 -15 14 -18 -11 -43 -25 -26 -29 -26 -62 -14
-34 12 -39 11 -73 -12 -20 -14 -82 -68 -136 -120 -98 -94 -99 -95 -94 -135 5
-35 2 -44 -23 -68 -16 -15 -30 -26 -32 -23 -25 34 -37 65 -37 94 0 30 8 44 53
87 75 73 181 164 251 215 55 41 65 45 105 40 23 -3 50 -12 59 -21z m-78 -75
c0 -10 -142 -121 -155 -121 -5 0 20 29 55 65 57 58 100 82 100 56z m1332 -76
c87 -18 248 -70 273 -88 16 -12 15 -19 -19 -101 -20 -48 -44 -99 -53 -113 -10
-15 -20 -47 -23 -72 l-5 -46 -132 1 c-73 0 -135 3 -139 6 -9 10 6 104 19 122
9 11 50 18 150 27 75 6 137 16 137 20 0 11 -10 12 -156 9 l-121 -2 -7 42 c-6
38 -10 43 -60 65 -30 13 -56 28 -59 32 -3 4 -2 32 0 61 l6 52 58 0 c32 0 91
-7 131 -15z m-232 -130 c69 -20 129 -40 133 -45 5 -4 1 -43 -8 -86 -57 -268
-99 -451 -106 -464 -5 -9 -8 60 -6 165 l2 180 23 -3 c27 -4 30 18 2 25 -13 3
-20 14 -20 29 0 19 5 24 26 24 30 0 23 17 -12 30 -20 8 -24 17 -24 49 0 23 -8
48 -18 61 l-18 23 -96 -17 c-53 -9 -130 -19 -172 -23 l-76 -6 0 53 0 52 123
-5 c102 -4 142 -11 247 -42z m-410 -5 c0 -39 -1 -40 -35 -40 -42 0 -44 14 -8
52 36 37 43 35 43 -12z m-337 -14 c139 -46 232 -60 397 -60 117 -1 174 3 234
17 65 16 80 17 87 5 5 -7 8 -146 6 -308 l-2 -295 -44 -6 c-37 -5 -52 -14 -89
-54 l-43 -48 -55 54 c-49 48 -164 188 -164 200 0 2 48 3 107 1 113 -4 213 4
213 17 0 4 -76 7 -169 7 -152 -1 -171 1 -190 18 -12 11 -21 22 -21 25 0 3 26
5 57 3 42 -2 54 0 43 7 -8 6 -38 11 -67 11 -47 0 -54 3 -82 37 -17 21 -31 40
-31 44 0 3 26 2 58 -3 79 -12 332 -11 362 1 18 7 -19 10 -140 12 -257 4 -285
6 -316 22 -34 17 -164 32 -164 19 0 -5 17 -16 38 -24 l37 -14 -32 -17 c-46
-24 -89 -22 -107 6 -17 28 -31 300 -16 328 13 23 5 24 93 -5z m-163 -248 c42
-27 63 -104 40 -147 -14 -28 -65 -44 -110 -37 -38 6 -40 5 -60 -34 -29 -57
-57 -72 -128 -68 -41 2 -71 -3 -100 -16 -34 -15 -47 -17 -66 -8 -31 14 -48 70
-36 113 19 66 56 84 138 69 66 -12 91 0 121 58 23 45 50 70 87 82 33 10 88 4
114 -12z m1434 -28 c71 -24 123 -55 130 -78 3 -10 -3 -49 -14 -87 -23 -81 -25
-108 -8 -103 15 5 47 100 47 142 1 25 3 27 17 15 13 -11 15 -25 10 -74 -13
-133 -40 -177 -103 -169 -53 7 -154 46 -160 62 -9 22 3 24 58 8 29 -9 63 -16
76 -16 46 0 22 17 -57 39 l-80 24 0 128 c0 101 3 129 13 129 8 0 40 -9 71 -20z
m-228 -30 c112 0 117 -6 112 -121 -3 -93 -9 -109 -32 -90 -25 21 -190 36 -248
22 -28 -6 -52 -10 -54 -8 -5 4 33 184 41 198 5 7 23 9 53 5 25 -3 82 -6 128
-6z m-905 -22 c9 -7 65 -74 124 -148 60 -74 147 -177 192 -228 73 -81 82 -95
73 -113 -7 -12 -18 -18 -28 -15 -9 2 -60 14 -112 26 -52 12 -104 26 -116 30
-11 4 -53 56 -93 114 -48 70 -80 108 -95 112 -29 7 -123 -16 -214 -52 -102
-41 -295 -139 -314 -161 -17 -19 -17 -21 12 -64 67 -99 157 -204 180 -210 14
-4 67 -7 118 -8 l93 -1 19 -42 c10 -24 16 -46 12 -49 -4 -4 -29 -14 -56 -22
l-48 -17 -43 38 c-24 20 -75 50 -114 65 -55 22 -77 37 -100 69 -17 23 -32 46
-34 52 -8 23 -19 -4 -12 -31 10 -40 76 -98 134 -118 51 -17 141 -87 141 -110
0 -7 -14 -25 -31 -39 -38 -32 -93 -34 -129 -6 l-25 20 25 23 c14 12 37 29 50
38 34 23 20 34 -24 19 -48 -15 -93 9 -176 96 -141 147 -145 194 -19 194 42 0
49 14 16 34 -12 8 -34 5 -82 -11 l-66 -21 -25 26 c-35 37 -80 102 -88 128 -9
29 12 49 76 69 29 10 78 30 108 46 45 24 66 29 121 28 79 -1 101 9 134 61 24
38 28 40 77 40 46 0 54 3 87 39 29 31 45 39 83 43 30 4 66 17 95 37 55 35 54
35 74 19z m951 -218 c23 -7 39 -18 44 -32 8 -25 -65 -335 -83 -353 -19 -19
-146 -29 -174 -15 -72 37 -94 89 -69 156 8 21 7 32 -6 51 -15 23 -14 30 10
109 15 46 34 88 44 94 20 13 176 6 234 -10z m-958 -118 c27 -42 56 -87 64 -99
13 -21 12 -23 -41 -48 -73 -35 -167 -112 -192 -158 -23 -42 -57 -54 -131 -43
-57 7 -85 26 -131 89 -21 27 -50 66 -65 86 -40 53 -36 65 36 106 126 70 370
161 401 149 5 -2 32 -39 59 -82z m1096 42 c53 -21 52 -43 -7 -93 -51 -44 -78
-52 -70 -23 3 9 8 40 12 67 7 49 12 65 20 65 3 0 23 -7 45 -16z m-493 -70 c30
-30 27 -37 -13 -25 -16 5 -42 12 -59 16 l-30 7 25 13 c36 20 48 18 77 -11z
m668 -4 c23 -45 18 -64 -25 -99 -22 -17 -46 -44 -54 -60 -12 -22 -27 -30 -72
-41 -31 -8 -72 -24 -91 -37 -19 -13 -39 -21 -44 -18 -5 4 -9 24 -9 46 0 43 10
56 100 129 150 121 170 129 195 80z m-2160 -56 c-26 -19 -120 -47 -143 -41
-20 5 -23 3 78 35 79 25 91 26 65 6z m1493 -4 c33 -15 42 -24 38 -37 -3 -10
-12 -47 -21 -82 -17 -66 -47 -135 -64 -145 -5 -3 -29 22 -54 56 -25 35 -54 72
-66 82 -27 25 -27 31 9 94 29 50 32 52 73 52 23 0 61 -9 85 -20z m839 -22 c30
-33 40 -57 48 -111 7 -47 7 -49 -37 -90 -30 -29 -81 -60 -159 -95 -129 -58
-172 -66 -167 -30 4 26 61 68 94 68 13 0 27 -7 32 -16 7 -12 23 -2 85 58 43
40 77 80 77 88 0 9 -9 33 -20 55 -23 45 -25 66 -8 83 18 18 32 15 55 -10z
m-79 -77 c12 -32 22 -61 22 -64 0 -11 -44 -47 -90 -74 -38 -23 -55 -27 -107
-24 -49 2 -62 -1 -58 -11 2 -7 -8 -28 -23 -45 l-27 -33 -53 25 c-73 34 -108
32 -189 -11 -66 -35 -71 -36 -143 -29 -95 8 -120 14 -120 30 0 7 17 49 38 94
l37 81 50 -35 c49 -35 51 -36 140 -33 49 1 106 -2 126 -6 30 -7 43 -4 75 17
21 13 63 33 93 43 34 12 77 40 119 76 36 32 70 58 76 58 6 0 21 -27 34 -59z
m-1114 19 c36 -12 66 -23 66 -26 0 -2 -12 -23 -26 -45 -26 -42 -29 -43 -91
-24 -34 11 -29 -12 7 -30 16 -8 38 -15 48 -15 11 0 25 -7 32 -15 7 -8 20 -15
30 -15 15 0 17 8 12 70 -2 39 -2 70 2 70 19 0 85 -42 112 -72 51 -55 72 -91
110 -188 41 -107 42 -144 4 -148 -21 -2 -29 4 -43 32 -22 48 -55 55 -114 26
l-45 -22 -36 31 c-20 17 -53 40 -73 51 -21 11 -51 42 -70 72 -56 87 -87 118
-121 118 -35 0 -79 -22 -134 -66 -36 -29 -44 -32 -54 -19 -34 42 4 103 105
169 106 70 168 80 279 46z m-984 -83 c0 -7 -25 -24 -55 -36 -30 -13 -55 -29
-55 -36 0 -13 51 -37 160 -75 70 -24 108 -46 97 -56 -10 -10 -292 83 -318 105
-24 20 -24 20 -4 40 22 21 130 70 158 71 9 0 17 -6 17 -13z m2282 -24 c26 -23
22 -45 -14 -80 -69 -66 -232 -139 -463 -207 -406 -119 -462 -131 -650 -130
-133 1 -150 3 -325 48 -241 61 -330 87 -330 97 0 15 51 10 125 -10 39 -11 142
-37 230 -58 148 -35 171 -38 300 -37 153 1 249 17 475 80 236 66 385 117 473
162 105 54 147 90 147 126 0 30 7 32 32 9z m-1463 -72 c10 -10 31 -40 46 -65
l26 -45 -37 -33 c-89 -79 -78 -74 -119 -58 -22 9 -26 15 -21 35 7 26 -3 32
-21 14 -7 -7 -18 -1 -37 21 -14 17 -26 37 -26 44 0 29 107 106 148 106 12 0
31 -9 41 -19z m-952 -56 c20 -8 113 -38 207 -66 94 -28 175 -55 179 -59 5 -4
4 -17 -2 -28 -12 -22 10 -48 66 -76 43 -22 52 -21 118 14 l57 30 212 -54 c400
-104 482 -108 761 -45 114 26 373 100 490 141 95 33 299 130 310 148 28 45 31
-54 15 -455 -5 -132 -14 -384 -20 -560 -27 -795 -29 -820 -76 -881 -41 -55
-298 -187 -510 -263 -305 -109 -487 -111 -870 -11 -254 67 -681 216 -745 261
-55 38 -65 92 -128 704 -94 897 -122 1215 -106 1215 3 0 22 -7 42 -15z m1906
-42 c49 -25 27 -38 -75 -43 -88 -5 -99 -8 -155 -43 -67 -41 -137 -56 -171 -38
-20 11 -51 85 -40 96 2 3 41 0 86 -6 80 -11 84 -10 132 15 89 46 158 52 223
19z m-833 -95 c10 -24 15 -47 11 -51 -5 -5 -34 -2 -66 7 -54 14 -73 22 -64 29
2 2 19 15 37 30 46 37 60 34 82 -15z m156 -48 c17 0 39 7 50 15 10 8 27 15 36
15 20 0 55 -47 44 -58 -10 -9 -141 -9 -188 1 -42 9 -52 22 -62 82 l-7 40 48
-47 c36 -36 56 -48 79 -48z"/>
<path d="M1072 3398 c14 -42 267 -82 485 -76 229 6 210 23 -25 23 -169 0 -212
3 -307 24 -60 13 -120 27 -133 32 -17 7 -23 6 -20 -3z"/>
<path d="M1074 3302 c9 -14 135 -42 192 -42 65 0 52 8 -47 26 -133 26 -152 28
-145 16z"/>
<path d="M1330 3262 c0 -11 33 -22 68 -22 12 0 22 5 22 10 0 6 -10 10 -22 10
-13 0 -33 3 -45 6 -13 4 -23 2 -23 -4z"/>
<path d="M1598 3260 c-107 -7 -130 -15 -73 -26 53 -10 209 11 199 27 -3 5 -11
8 -17 7 -7 0 -56 -4 -109 -8z"/>
<path d="M1586 3081 c-35 -13 1 -23 57 -16 86 12 100 24 27 24 -36 0 -74 -4
-84 -8z"/>
<path d="M1955 3061 c-11 -18 19 -24 139 -29 93 -3 118 -2 110 8 -6 6 -54 15
-105 20 -120 12 -137 12 -144 1z"/>
<path d="M1210 3023 c0 -13 229 -273 240 -273 22 0 5 24 -102 146 -105 118
-138 149 -138 127z"/>
<path d="M610 2610 c-19 -12 -7 -22 21 -18 19 2 20 5 8 15 -9 7 -20 9 -29 3z"/>
<path d="M937 2397 c-6 -15 10 -37 26 -37 12 0 4 43 -9 47 -6 2 -14 -3 -17
-10z"/>
<path d="M1845 2471 c-7 -13 34 -31 88 -38 52 -8 47 12 -7 26 -24 6 -50 13
-59 17 -8 3 -18 1 -22 -5z"/>
<path d="M1603 2531 c7 -57 24 -88 40 -72 6 6 3 28 -8 60 -24 72 -40 78 -32
12z"/>
<path d="M1574 1995 c-8 -19 1 -153 10 -162 3 -4 11 -2 17 4 8 8 9 36 4 87 -7
75 -19 103 -31 71z"/>
<path d="M760 1552 c0 -267 2 -313 15 -326 21 -20 91 -41 244 -70 340 -66 754
-76 1056 -26 168 29 291 65 305 90 6 11 10 133 10 313 0 339 4 325 -82 308
-96 -19 -310 -40 -513 -52 -232 -12 -435 -2 -745 38 -107 14 -216 27 -242 30
l-48 6 0 -311z m207 254 c268 -42 387 -51 653 -51 257 0 392 10 609 45 63 11
118 17 123 14 4 -3 8 -133 8 -289 0 -332 13 -300 -135 -333 -198 -46 -316 -57
-600 -56 -223 0 -296 4 -420 21 -178 26 -383 69 -402 84 -10 9 -13 72 -13 300
0 167 4 289 9 289 5 0 80 -11 168 -24z"/>
<path d="M920 1480 c0 -114 3 -140 14 -140 8 0 21 -3 30 -6 13 -5 16 2 16 39
l0 44 52 5 c62 6 88 32 88 87 0 68 -35 93 -147 105 l-53 5 0 -139z m118 64
c12 -8 22 -21 22 -29 0 -20 -28 -45 -51 -45 -16 0 -19 7 -19 45 0 49 10 56 48
29z"/>
<path d="M2070 1611 c-32 -6 -35 -9 -38 -46 -2 -22 -1 -86 3 -143 l7 -103 32
3 c31 3 31 3 28 56 -5 67 12 69 58 7 30 -40 38 -45 72 -45 21 0 38 3 38 6 0 3
-18 28 -39 57 l-39 51 24 29 c26 31 30 54 13 90 -19 43 -68 54 -159 38z m97
-67 c9 -24 -10 -49 -41 -52 -24 -3 -26 0 -26 32 0 33 2 36 30 36 19 0 33 -6
37 -16z"/>
<path d="M1856 1593 l-59 -4 7 -141 c3 -78 8 -144 11 -146 2 -2 43 -1 90 3
l85 7 0 29 0 30 -60 -7 -60 -7 0 31 c0 32 17 42 73 42 24 0 27 4 27 31 l0 31
-50 -7 -50 -7 0 31 c0 29 1 30 53 33 48 3 52 5 55 31 4 30 15 28 -122 20z"/>
<path d="M1175 1463 c-64 -163 -62 -153 -26 -153 24 0 34 7 46 31 11 20 21 29
31 25 9 -3 31 -6 49 -6 27 0 35 -5 43 -29 8 -21 18 -30 41 -33 19 -3 31 0 31
7 0 15 -75 237 -89 263 -8 16 -21 22 -44 22 -32 0 -32 -1 -82 -127z m98 20 c3
-16 9 -36 12 -45 6 -15 2 -18 -24 -18 -34 0 -37 8 -19 57 15 40 24 42 31 6z"/>
<path d="M1430 1435 l0 -145 35 0 c35 0 35 0 35 45 0 45 0 45 40 51 81 13 119
78 86 142 -19 36 -63 52 -143 52 l-53 0 0 -145z m134 63 c15 -25 -3 -52 -38
-56 -24 -3 -26 -1 -26 38 0 39 2 41 26 38 15 -2 32 -11 38 -20z"/>
<path d="M1680 1435 l0 -145 35 0 35 0 0 93 c0 50 -3 116 -6 145 -6 49 -8 52
-35 52 l-29 0 0 -145z"/>
<path d="M1627 1034 c-9 -9 -9 -248 0 -416 5 -103 9 -128 21 -128 13 0 14 35
7 263 -7 247 -12 297 -28 281z"/>
<path d="M1636 402 c-3 -4 -2 -34 1 -65 4 -40 10 -57 20 -57 11 0 13 14 11 62
-3 56 -17 84 -32 60z"/>
</g>
</svg>
