<?xml version="1.0" standalone="no"?>
<!DOCTYPE svg PUBLIC "-//W3C//DTD SVG 20010904//EN"
 "http://www.w3.org/TR/2001/REC-SVG-20010904/DTD/svg10.dtd">
<svg version="1.0" xmlns="http://www.w3.org/2000/svg"
 width="256.000000pt" height="256.000000pt" viewBox="0 0 256.000000 256.000000"
 preserveAspectRatio="xMidYMid meet">
<g transform="translate(0.000000,256.000000) scale(0.050000,-0.050000)"
fill="#000000" stroke="none">
<path d="M1398 4902 l-58 -59 0 -253 0 -254 -127 -137 c-346 -374 -354 -426
-354 -2189 l0 -1440 56 -109 c65 -129 208 -247 337 -279 113 -29 942 -29 1023
-1 83 29 112 137 38 140 -13 0 -253 3 -534 5 -742 6 -749 12 -749 652 l0 412
640 4 c690 5 721 10 669 109 -31 56 -66 59 -714 53 l-605 -6 0 665 0 665 649
0 c647 0 650 0 673 44 57 106 0 116 -697 116 l-630 0 10 255 c14 360 98 575
310 801 l97 104 332 0 332 0 111 -120 c139 -150 243 -360 289 -580 32 -159 38
-170 88 -176 203 -24 12 585 -277 888 l-104 108 -6 272 c-9 374 -3 368 -430
368 l-310 0 -59 -58z m642 -322 l0 -220 -270 0 -270 0 0 220 0 220 270 0 270
0 0 -220z"/>
<path d="M3140 3704 l0 -357 -125 -23 c-321 -60 -695 -408 -695 -649 0 -18
-31 -63 -70 -98 -122 -111 -85 -397 52 -397 23 0 51 -180 141 -908 125 -998
128 -1012 263 -1073 117 -53 917 -58 1026 -7 150 71 141 36 278 1148 106 865
102 840 140 840 17 0 48 18 70 40 83 83 39 380 -56 380 -9 0 -32 53 -52 117
-95 318 -360 554 -684 609 l-128 22 0 356 0 356 -80 0 -80 0 0 -356z m444
-592 c176 -84 453 -442 390 -505 -4 -4 -346 -5 -760 -2 l-752 5 48 118 c161
395 670 577 1074 384z m516 -722 l0 -50 -880 0 -880 0 0 50 0 50 880 0 880 0
0 -50z m-160 -278 c0 -37 -6 -95 -12 -130 l-13 -62 -695 0 -695 0 -12 93 c-26
186 -106 167 707 167 l720 0 0 -68z m-48 -427 c-6 -41 -21 -156 -33 -255 -11
-99 -25 -200 -30 -225 l-10 -45 -598 0 -598 0 -11 55 c-6 30 -20 145 -32 255
-12 110 -26 220 -31 245 l-10 45 682 0 683 0 -12 -75z m-93 -730 c-1 -124 -74
-578 -96 -600 -18 -18 -146 -27 -464 -31 -548 -8 -519 -24 -556 316 -14 127
-30 259 -36 295 l-11 65 582 0 582 0 -1 -45z"/>
</g>
</svg>
