<?xml version="1.0" standalone="no"?>
<!DOCTYPE svg PUBLIC "-//W3C//DTD SVG 20010904//EN"
 "http://www.w3.org/TR/2001/REC-SVG-20010904/DTD/svg10.dtd">
<svg version="1.0" xmlns="http://www.w3.org/2000/svg"
 width="500.000000pt" height="500.000000pt" viewBox="0 0 500.000000 500.000000"
 preserveAspectRatio="xMidYMid meet">
<g transform="translate(0.000000,500.000000) scale(0.050000,-0.050000)"
fill="#000000" stroke="none">
<path d="M2370 8852 c-191 -86 -190 -79 -190 -1318 -1 -1377 -1 -1379 -382
-1815 -291 -333 -445 -621 -531 -989 -34 -148 -37 -267 -37 -1620 l0 -1460 53
-112 c74 -159 180 -267 334 -343 l132 -65 1201 0 1200 0 119 58 c145 72 267
190 332 323 l49 99 10 1330 c15 2031 -9 2147 -569 2785 -370 421 -358 360
-370 1765 -14 1518 62 1378 -747 1385 -423 3 -557 -2 -604 -23z m1130 -192
c36 -36 40 -67 40 -280 l0 -240 -590 0 -590 0 0 240 c0 344 -44 320 590 320
483 0 512 -2 550 -40z m45 -1525 c7 -714 13 -839 42 -928 l35 -103 -133 -267
c-73 -147 -134 -268 -136 -270 -2 -2 -178 -40 -393 -86 -508 -106 -449 -65
-595 -419 -133 -324 -138 -341 -101 -378 85 -85 143 -7 305 408 l55 141 328
67 c181 36 332 62 337 58 5 -5 -10 -91 -32 -190 l-40 -182 108 -178 c110 -182
162 -220 226 -167 45 37 36 73 -59 229 l-89 146 48 221 c37 169 75 275 159
443 l111 222 85 -109 c46 -60 140 -173 209 -252 267 -304 411 -617 464 -1007
37 -273 28 -2743 -10 -2872 -40 -134 -157 -263 -289 -320 -148 -64 -2359 -57
-2489 7 -208 103 -291 267 -291 575 l0 196 1213 0 c1101 0 1217 3 1250 33 54
49 57 1871 4 1930 -31 35 -97 37 -1253 37 l-1220 0 12 245 c24 517 162 826
590 1317 327 376 364 532 364 1537 l0 741 589 0 589 0 7 -825z m175 -4015 l0
-820 -1160 0 -1160 0 0 820 0 820 1160 0 1160 0 0 -820z"/>
<path d="M5749 7202 c-355 -161 -784 -2171 -602 -2822 174 -623 737 -1051
1507 -1146 l185 -23 5 -538 c4 -339 -1 -548 -14 -563 -11 -13 -216 -171 -456
-350 -572 -425 -589 -448 -456 -582 l59 -58 963 0 963 0 59 58 c129 130 100
166 -475 595 l-468 349 6 544 5 544 146 16 c786 85 1377 524 1548 1148 189
691 -244 2679 -618 2839 -113 48 -2249 38 -2357 -11z m1353 -227 c-314 -736
-349 -836 -308 -876 9 -9 150 -39 315 -68 164 -29 301 -55 304 -58 3 -3 -120
-149 -274 -324 -306 -349 -349 -439 -210 -439 69 0 748 744 750 823 2 69 -36
83 -371 142 -175 30 -316 64 -315 75 2 11 78 198 169 415 l164 395 353 0 c410
0 394 6 482 -190 335 -751 534 -1998 392 -2460 -427 -1394 -2913 -1348 -3244
61 -116 490 72 1608 400 2389 92 218 23 200 773 200 l657 0 -37 -85z m283
-5345 l441 -330 -886 0 c-488 0 -881 6 -873 13 20 21 862 646 870 646 4 1 206
-147 448 -329z"/>
</g>
</svg>
