<?xml version="1.0" standalone="no"?>
<!DOCTYPE svg PUBLIC "-//W3C//DTD SVG 20010904//EN"
 "http://www.w3.org/TR/2001/REC-SVG-20010904/DTD/svg10.dtd">
<svg version="1.0" xmlns="http://www.w3.org/2000/svg"
 width="431.000000pt" height="313.000000pt" viewBox="0 0 431.000000 313.000000"
 preserveAspectRatio="xMidYMid meet">
<g transform="translate(0.000000,313.000000) scale(0.050000,-0.050000)"
fill="#000000" stroke="none">
<path d="M1336 6214 c-109 -87 -184 -637 -138 -1009 40 -324 177 -682 347
-907 l79 -104 -227 -228 c-401 -404 -848 -770 -1151 -942 -249 -142 -251 -140
254 -215 413 -61 393 -50 269 -155 -54 -46 -139 -122 -189 -168 l-90 -85 99
-86 c805 -697 1982 -1456 2491 -1605 28 -8 122 -49 210 -91 588 -282 1398
-290 1961 -19 88 42 230 105 314 138 658 262 1638 883 2335 1480 236 202 232
172 36 343 -91 79 -174 152 -185 161 -31 29 -12 34 349 87 482 72 498 80 326
171 -283 150 -700 481 -1124 892 l-250 242 84 98 c369 439 515 1153 365 1784
-57 238 -78 254 -296 235 -590 -54 -1214 -282 -1625 -594 l-188 -143 -151 52
c-465 162 -1180 179 -1735 43 l-204 -51 -158 118 c-466 345 -1626 703 -1808
558z m584 -316 c423 -97 1159 -426 1095 -489 -4 -5 -63 -44 -132 -89 l-124
-80 -100 79 c-153 121 -370 232 -605 311 -291 97 -318 78 -153 -107 293 -329
291 -726 -5 -1041 l-83 -88 -54 64 c-205 246 -311 650 -295 1128 14 419 10
415 456 312z m5327 17 c122 -494 6 -1104 -283 -1485 -97 -128 -101 -127 -247
40 -311 356 -316 719 -14 1057 153 172 131 196 -106 121 -233 -73 -380 -144
-575 -275 -195 -131 -179 -128 -284 -62 l-81 51 87 65 c424 319 1461 656 1503
488z m-3525 -915 c137 -38 279 -159 409 -350 154 -226 167 -227 300 -25 353
538 647 538 1549 -1 l489 -293 451 -452 c247 -248 552 -535 676 -638 124 -102
220 -191 214 -197 -5 -6 -160 -32 -343 -57 -305 -42 -368 -56 -345 -73 68 -52
578 -499 578 -507 0 -87 -1285 -967 -1412 -967 -267 0 -242 186 44 330 362
182 1002 683 945 740 -6 6 -88 62 -183 125 -163 109 -454 366 -454 401 0 10
115 44 255 76 339 78 339 90 1 227 -146 59 -450 197 -676 306 -685 331 -849
382 -1086 335 -556 -109 -792 -702 -514 -1296 84 -181 255 -339 561 -523 497
-297 600 -413 572 -644 -62 -524 -829 -671 -1221 -235 -107 119 -110 132 -37
159 306 109 430 396 252 582 -176 184 -759 176 -924 -13 -167 -190 -13 -508
282 -581 77 -19 70 -42 -52 -160 -424 -411 -1111 -289 -1217 217 -51 241 62
376 563 675 632 378 850 924 576 1444 -240 455 -662 499 -1385 146 -394 -193
-691 -327 -956 -432 -287 -113 -282 -131 51 -208 159 -37 255 -68 255 -84 0
-36 -293 -289 -465 -402 -190 -125 -188 -120 -79 -232 234 -240 578 -491 848
-620 304 -145 312 -382 11 -325 -112 21 -986 628 -1273 885 l-88 78 277 240
c152 131 286 245 297 253 40 26 -4 37 -335 83 -183 25 -338 51 -343 57 -6 6
90 94 214 197 124 102 437 398 696 658 l470 472 443 264 c624 372 834 441
1109 365z m-497 -1692 c179 -90 305 -331 209 -398 -62 -44 -74 -38 -74 37 0
145 -177 298 -350 301 -117 2 -150 -17 -150 -87 0 -67 -72 -130 -125 -110 -97
37 -48 -218 60 -313 77 -68 77 -67 -2 -86 -117 -28 -246 181 -228 370 27 284
370 433 660 286z m2626 -11 c247 -169 194 -681 -66 -642 -79 12 -81 2 14 102
107 112 141 330 46 294 -51 -20 -122 42 -129 113 -21 217 -458 37 -490 -202
-13 -92 -23 -97 -84 -47 -84 69 48 318 209 394 160 76 379 71 500 -12z m-1563
-1269 c86 -33 1 -145 -122 -162 -168 -22 -289 86 -166 148 52 26 233 35 288
14z m116 -998 c87 -78 226 -156 446 -251 l60 -26 -110 -29 c-228 -61 -1100
-34 -1100 33 0 8 47 30 105 50 141 50 286 134 395 231 110 98 85 99 204 -8z"/>
</g>
</svg>
