<?xml version="1.0" standalone="no"?>
<!DOCTYPE svg PUBLIC "-//W3C//DTD SVG 20010904//EN"
 "http://www.w3.org/TR/2001/REC-SVG-20010904/DTD/svg10.dtd">
<svg version="1.0" xmlns="http://www.w3.org/2000/svg"
 width="600.000000pt" height="600.000000pt" viewBox="0 0 600.000000 600.000000"
 preserveAspectRatio="xMidYMid meet">
<g transform="translate(0.000000,600.000000) scale(0.050000,-0.050000)"
fill="#000000" stroke="none">
<path d="M5690 10408 c-182 -43 -234 -61 -333 -113 -222 -115 -388 -331 -445
-575 -40 -169 11 -159 -816 -160 -726 0 -736 -1 -892 -50 -462 -146 -755 -521
-796 -1018 l-13 -171 327 -5 328 -6 14 -190 c16 -210 82 -1231 247 -3830 60
-946 118 -1760 130 -1810 92 -393 443 -738 869 -851 160 -43 3265 -70 3455
-30 387 81 734 435 795 811 11 66 38 462 60 880 40 734 93 1687 220 3915 33
581 60 1069 60 1085 0 25 54 30 353 30 l353 0 -13 168 c-33 431 -268 785 -639
959 -228 108 -265 112 -1071 114 -555 1 -747 8 -752 25 -3 13 -16 77 -28 142
-58 310 -274 533 -623 642 -108 34 -691 62 -790 38z m651 -360 c226 -51 372
-175 428 -363 l14 -45 -772 0 c-424 0 -771 3 -771 8 0 311 574 520 1101 400z
m2308 -799 c298 -77 631 -401 631 -612 0 -36 -108 -37 -3280 -37 -3172 0
-3280 1 -3280 37 0 207 331 533 622 611 167 45 5135 46 5307 1z m-129 -1150
c0 -104 -240 -4455 -288 -5221 -37 -579 -100 -721 -387 -862 l-134 -66 -430
-6 c-1168 -15 -2865 26 -2981 72 -415 164 -503 352 -559 1207 -47 703 -201
3174 -261 4167 -22 374 -44 709 -49 745 l-8 65 2548 0 2549 0 0 -101z"/>
<path d="M4356 7449 c-75 -41 -84 -84 -79 -389 13 -902 63 -3683 71 -3957 12
-409 67 -502 258 -438 122 42 119 -18 84 1671 -17 844 -38 1870 -46 2281 l-14
746 -65 59 c-72 64 -128 71 -209 27z"/>
<path d="M5480 7466 c-16 -6 -50 -30 -75 -52 l-45 -41 0 -2313 0 -2313 48 -45
c83 -78 233 -58 282 38 36 69 46 4535 11 4628 -30 77 -142 127 -221 98z"/>
<path d="M6389 7351 l-49 -49 0 -2262 c0 -1583 6 -2275 22 -2303 57 -107 259
-107 316 0 16 28 22 720 22 2303 l0 2262 -49 49 c-68 68 -194 68 -262 0z"/>
<path d="M7451 7353 c-39 -39 -49 -75 -59 -215 -10 -138 -133 -4185 -132
-4334 1 -129 211 -195 309 -97 60 60 59 45 112 1973 22 831 49 1748 58 2039 9
291 12 543 6 560 -43 123 -204 164 -294 74z"/>
</g>
</svg>
