<?xml version="1.0" standalone="no"?>
<!DOCTYPE svg PUBLIC "-//W3C//DTD SVG 20010904//EN"
 "http://www.w3.org/TR/2001/REC-SVG-20010904/DTD/svg10.dtd">
<svg version="1.0" xmlns="http://www.w3.org/2000/svg"
 width="612.000000pt" height="612.000000pt" viewBox="0 0 612.000000 612.000000"
 preserveAspectRatio="xMidYMid meet">
<g transform="translate(0.000000,612.000000) scale(0.050000,-0.050000)"
fill="#000000" stroke="none">
<path d="M5540 10108 c-3259 -490 -4590 -4442 -2291 -6804 2176 -2236 6001
-1210 6773 1816 706 2772 -1665 5411 -4482 4988z m1217 -528 c2752 -504 3833
-3892 1885 -5907 -1793 -1854 -4931 -1190 -5824 1232 -938 2543 1271 5164
3939 4675z"/>
<path d="M4152 8259 c-140 -42 -218 -199 -163 -330 21 -49 319 -362 899 -941
l869 -867 -869 -869 c-573 -573 -879 -894 -899 -942 -82 -194 126 -403 321
-321 47 20 366 324 933 890 474 474 869 861 877 861 9 0 406 -390 884 -867
665 -664 885 -873 942 -892 195 -64 384 140 306 328 -21 50 -315 358 -900 943
l-869 868 868 868 c586 584 879 891 900 940 81 196 -126 405 -321 323 -46 -19
-375 -333 -941 -898 l-871 -868 -868 868 c-795 796 -948 934 -1024 925 -9 -1
-42 -9 -74 -19z"/>
</g>
</svg>
