<?xml version="1.0" standalone="no"?>
<!DOCTYPE svg PUBLIC "-//W3C//DTD SVG 20010904//EN"
 "http://www.w3.org/TR/2001/REC-SVG-20010904/DTD/svg10.dtd">
<svg version="1.0" xmlns="http://www.w3.org/2000/svg"
 width="228.000000pt" height="228.000000pt" viewBox="0 0 228.000000 228.000000"
 preserveAspectRatio="xMidYMid meet">
<g transform="translate(0.000000,228.000000) scale(0.050000,-0.050000)"
fill="#000000" stroke="none">
<path d="M200 3965 c-57 -21 -59 -62 -60 -1249 0 -1161 1 -1195 39 -1215 65
-35 1010 -28 1040 8 77 92 41 101 -464 106 l-475 6 0 1099 0 1100 639 0 640 0
5 -215 6 -215 245 -6 245 -5 0 -359 c0 -342 2 -360 41 -381 90 -48 99 -7 99
432 l0 407 -280 251 -281 251 -704 -2 c-388 0 -718 -6 -735 -13z m1630 -345
l110 -100 -120 0 -120 0 0 100 c0 55 4 100 10 100 5 0 59 -45 120 -100z"/>
<path d="M431 3309 c-40 -40 -46 -506 -7 -545 33 -33 539 -33 572 0 39 39 33
505 -7 545 -46 46 -512 46 -558 0z m445 -274 l6 -155 -171 0 -171 0 0 147 c0
180 -5 176 179 169 l151 -6 6 -155z"/>
<path d="M1261 3251 c-73 -87 -30 -101 317 -101 351 0 411 17 343 98 -37 45
-623 48 -660 3z"/>
<path d="M1246 2887 c-31 -81 14 -97 306 -103 355 -7 441 18 366 109 -37 44
-655 39 -672 -6z"/>
<path d="M2031 2361 l-419 -196 -124 -267 c-145 -313 -144 -338 13 -338 l99 0
0 -469 c0 -444 2 -471 39 -490 24 -14 313 -21 800 -21 l761 0 415 192 c228
106 426 202 440 213 19 15 25 131 25 456 l0 437 170 80 c115 53 170 90 170
113 0 31 -303 404 -377 464 -23 19 -215 25 -812 24 l-781 -2 -419 -196z m1608
43 c0 -8 -104 -61 -230 -119 l-230 -105 -583 0 c-320 0 -576 7 -568 15 8 8
115 61 238 119 l224 105 575 -1 c316 0 575 -6 574 -14z m574 -293 c-8 -28
-638 -314 -653 -296 -7 8 -61 71 -120 140 -58 69 -100 131 -93 139 8 7 151 78
318 157 l305 145 124 -133 c69 -73 122 -141 119 -152z m-1133 -85 c0 -8 -33
-84 -73 -170 l-73 -156 -687 0 c-378 0 -687 6 -687 14 0 8 33 84 73 170 l73
156 687 0 c378 0 687 -6 687 -14z m376 -309 c59 -82 93 -82 276 3 95 44 182
80 191 80 10 0 15 -162 12 -361 l-5 -362 -318 -148 c-175 -82 -321 -149 -325
-149 -4 0 -7 258 -7 574 l0 573 75 -87 c41 -48 87 -103 101 -123z m-316 -457
l0 -520 -700 0 -700 0 0 410 0 410 641 0 641 0 51 110 c27 61 54 110 58 110 5
0 9 -234 9 -520z"/>
<path d="M420 2410 c-89 -108 573 -177 670 -70 75 83 18 100 -330 100 -257 0
-320 -6 -340 -30z"/>
<path d="M432 2069 c-88 -88 -24 -109 330 -109 325 0 375 12 347 86 -24 63
-617 84 -677 23z"/>
</g>
</svg>
